Coordinates
version=1
nRows=19
nColumns=63
inDegrees=yes

Units are S.I. units (second, meters, Newtons, ...)
If the header above contains a line with 'inDegrees', this indicates whether rotational values are in degrees (yes) or radians (no).

endheader
time	pelvis_tilt	pelvis_list	pelvis_rotation	pelvis_tx	pelvis_ty	pelvis_tz	hip_flexion_r	hip_adduction_r	hip_rotation_r	knee_angle_r	knee_angle_r_beta	ankle_angle_r	subtalar_angle_r	mtp_angle_r	hip_flexion_l	hip_adduction_l	hip_rotation_l	knee_angle_l	knee_angle_l_beta	ankle_angle_l	subtalar_angle_l	mtp_angle_l	L5_S1_Flex_Ext	L5_S1_Lat_Bending	L5_S1_axial_rotation	L4_L5_Flex_Ext	L4_L5_Lat_Bending	L4_L5_axial_rotation	L3_L4_Flex_Ext	L3_L4_Lat_Bending	L3_L4_axial_rotation	L2_L3_Flex_Ext	L2_L3_Lat_Bending	L2_L3_axial_rotation	L1_L2_Flex_Ext	L1_L2_Lat_Bending	L1_L2_axial_rotation	L1_T12_Flex_Ext	L1_T12_Lat_Bending	L1_T12_axial_rotation	Abs_r3	Abs_r2	Abs_r1	Abs_t1	Abs_t2	neck_flexion	neck_bending	neck_rotation	arm_flex_r	arm_add_r	arm_rot_r	elbow_flex_r	pro_sup_r	wrist_flex_r	wrist_dev_r	arm_flex_l	arm_add_l	arm_rot_l	elbow_flex_l	pro_sup_l	wrist_flex_l	wrist_dev_l
1.116667	-5.508116	-2.134867	95.539067	0.239839	0.709856	0.759572	5.413035	-2.567768	-12.087930	3.363160	0.058698	23.493658	1.928482	0.000000	8.882490	2.798543	1.196428	5.184491	0.090486	25.490444	8.020831	0.000000	0.359471	-0.198308	-0.800338	0.667573	-0.263749	-0.850359	0.590574	-0.482165	-0.850359	0.410839	-0.482165	-0.700296	0.333804	-0.404389	-0.650275	0.205402	-0.307179	-0.600253	2.567663	-2.243297	-4.451239	0.000000	0.000000	27.273775	2.843977	-3.659663	11.417185	-8.544872	51.797511	48.010164	48.422672	6.654102	19.260222	7.861796	-11.820204	45.478761	56.351734	63.388486	5.448616	11.734977
1.133333	-5.501083	-2.102485	95.519172	0.239830	0.709919	0.759408	5.453737	-2.577070	-12.264043	3.449958	0.060213	23.783474	2.328342	0.000000	8.820087	2.785256	1.338326	5.238274	0.091425	25.297956	7.505035	0.000000	0.357539	-0.198144	-0.792426	0.663986	-0.263532	-0.841952	0.587401	-0.481768	-0.841952	0.408632	-0.481768	-0.693372	0.332011	-0.404056	-0.643846	0.204298	-0.306925	-0.594319	2.553867	-2.241446	-4.407233	0.000000	0.000000	27.223374	2.841950	-3.780801	11.382785	-8.557407	51.767310	48.038812	48.154550	6.591251	19.322170	7.713993	-11.760834	45.248926	56.398461	63.579427	5.324040	11.752348
1.150000	-5.472205	-2.057685	95.508942	0.239806	0.709990	0.759283	5.499759	-2.569726	-12.529124	3.558621	0.062110	24.130624	2.879051	0.000000	8.763664	2.749639	1.491781	5.327553	0.092983	25.116810	6.966354	0.000000	0.353596	-0.195797	-0.784491	0.656663	-0.260410	-0.833522	0.580923	-0.476062	-0.833522	0.404125	-0.476062	-0.686430	0.328349	-0.399270	-0.637399	0.202045	-0.303290	-0.588368	2.525702	-2.214898	-4.363105	0.000000	0.000000	27.179774	2.832835	-3.949683	11.369010	-8.596037	51.783407	48.074034	48.120790	6.553387	19.290598	7.598763	-11.702165	45.093297	56.428626	63.700320	5.168167	11.712657
1.166667	-5.431005	-2.018431	95.533063	0.239741	0.710055	0.759167	5.556888	-2.556412	-12.881139	3.679023	0.064211	24.524111	3.541069	0.000000	8.717545	2.708480	1.697864	5.423346	0.094655	24.922062	6.412947	0.000000	0.350832	-0.192523	-0.786729	0.651531	-0.256055	-0.835900	0.576383	-0.468100	-0.835900	0.400966	-0.468100	-0.688388	0.325783	-0.392592	-0.639217	0.200466	-0.298218	-0.590047	2.505961	-2.177856	-4.375551	0.000000	0.000000	27.138885	2.838754	-4.110916	11.369606	-8.631390	51.832259	48.095114	48.211843	6.544088	19.250187	7.450709	-11.631855	44.840012	56.459621	63.922195	5.074688	11.719102
1.183333	-5.384575	-1.984626	95.579171	0.239656	0.710113	0.759056	5.619926	-2.541504	-13.264288	3.805985	0.066427	24.929753	4.236641	0.000000	8.676001	2.666828	1.936645	5.511159	0.096188	24.721269	5.878725	0.000000	0.349013	-0.189384	-0.795067	0.648153	-0.251881	-0.844758	0.573394	-0.460469	-0.844758	0.398887	-0.460469	-0.695683	0.324094	-0.386192	-0.645992	0.199426	-0.293356	-0.596300	2.492967	-2.142353	-4.421923	0.000000	0.000000	27.102825	2.855741	-4.294721	11.366842	-8.653209	51.864282	48.097257	48.428438	6.570461	19.218788	7.281482	-11.554107	44.513579	56.502600	64.170668	5.031904	11.823338
1.200000	-5.330548	-1.949653	95.612088	0.239585	0.710153	0.758958	5.673753	-2.514459	-13.601978	3.919508	0.068408	25.295553	4.873886	0.000000	8.642486	2.618299	2.158137	5.605817	0.097840	24.564156	5.386807	0.000000	0.347258	-0.185349	-0.802738	0.644893	-0.246514	-0.852909	0.570511	-0.450658	-0.852909	0.396882	-0.450658	-0.702395	0.322464	-0.377964	-0.652224	0.198423	-0.287106	-0.602053	2.480431	-2.096706	-4.464585	0.000000	0.000000	27.068869	2.882483	-4.461851	11.387682	-8.690472	51.973531	48.099683	48.638023	6.582357	19.168798	7.119673	-11.477607	44.168379	56.540901	64.455871	5.059197	11.963620
1.216667	-5.287569	-1.915998	95.647057	0.239527	0.710175	0.758882	5.714942	-2.495530	-13.894309	4.027643	0.070296	25.585664	5.378948	0.000000	8.610141	2.584643	2.383158	5.678788	0.099114	24.446454	4.957873	0.000000	0.345771	-0.183324	-0.811493	0.642132	-0.243820	-0.862211	0.568068	-0.445733	-0.862211	0.395182	-0.445733	-0.710056	0.321083	-0.373833	-0.659338	0.197574	-0.283968	-0.608620	2.469809	-2.073793	-4.513281	0.000000	0.000000	27.033031	2.925717	-4.652590	11.417532	-8.712853	52.107226	48.071593	48.828155	6.618943	19.108397	6.963320	-11.411723	43.802533	56.600830	64.667894	5.102996	12.234600
1.233333	-5.272785	-1.887120	95.681132	0.239488	0.710171	0.758821	5.747731	-2.505713	-14.211876	4.144308	0.072332	25.805464	5.812188	0.000000	8.573526	2.582320	2.582895	5.708064	0.099625	24.374049	4.651182	0.000000	0.345099	-0.185257	-0.819595	0.640883	-0.246392	-0.870819	0.566963	-0.450435	-0.870819	0.394413	-0.450435	-0.717145	0.320459	-0.377777	-0.665921	0.197189	-0.286964	-0.614696	2.465006	-2.095670	-4.558339	0.000000	0.000000	26.992013	2.980461	-4.869196	11.437703	-8.704351	52.215151	48.011373	48.920902	6.668639	19.087371	6.813404	-11.360032	43.409722	56.686464	64.883671	5.187554	12.642762
1.250000	-5.288765	-1.850642	95.672754	0.239507	0.710150	0.758774	5.756856	-2.542439	-14.493961	4.254196	0.074250	25.931162	6.151901	0.000000	8.521095	2.608929	2.709088	5.696944	0.099430	24.375727	4.470747	0.000000	0.343002	-0.190444	-0.818218	0.636990	-0.253291	-0.869357	0.563519	-0.463046	-0.869357	0.392018	-0.463046	-0.715941	0.318512	-0.388354	-0.664802	0.195992	-0.294998	-0.613664	2.450032	-2.154343	-4.550684	0.000000	0.000000	26.952620	3.043403	-5.067137	11.467549	-8.688136	52.353896	47.931961	49.010265	6.708842	18.997820	6.701285	-11.330291	43.073122	56.782896	64.953044	5.284754	13.134363
1.266667	-5.334106	-1.812417	95.623597	0.239581	0.710106	0.758711	5.742574	-2.602058	-14.721389	4.343279	0.075805	25.974766	6.393620	0.000000	8.458543	2.663106	2.777184	5.646440	0.098549	24.454508	4.397531	0.000000	0.340491	-0.198848	-0.807682	0.632325	-0.264468	-0.858162	0.559392	-0.483480	-0.858162	0.389147	-0.483480	-0.706722	0.316180	-0.405491	-0.656242	0.194556	-0.308016	-0.605761	2.432090	-2.249411	-4.492084	0.000000	0.000000	26.915421	3.108921	-5.268335	11.500180	-8.661575	52.511202	47.829669	48.997814	6.768243	18.860513	6.627480	-11.326991	42.805899	56.895680	64.970638	5.402576	13.693784
1.283333	-5.410540	-1.779100	95.544811	0.239690	0.710053	0.758611	5.708707	-2.684763	-14.797874	4.403055	0.076848	25.935863	6.422956	0.000000	8.386831	2.747121	2.745392	5.550039	0.096866	24.600270	4.499111	0.000000	0.338302	-0.210002	-0.792562	0.628260	-0.279303	-0.842097	0.555796	-0.510599	-0.842097	0.386645	-0.510599	-0.693492	0.314147	-0.428236	-0.643957	0.193306	-0.325293	-0.594422	2.416454	-2.375584	-4.407994	0.000000	0.000000	26.887991	3.171130	-5.410579	11.513724	-8.608083	52.587723	47.703367	49.339365	6.932006	18.638956	6.558751	-11.336509	42.521554	57.020572	65.208070	5.600721	14.303603
1.300000	-5.518701	-1.745414	95.400650	0.239872	0.710003	0.758466	5.660981	-2.793443	-14.787869	4.438854	0.077473	25.870511	6.433802	0.000000	8.295831	2.858239	2.652824	5.410228	0.094426	24.786450	4.651613	0.000000	0.335457	-0.223852	-0.764227	0.622978	-0.297723	-0.811992	0.551123	-0.544273	-0.811992	0.383394	-0.544273	-0.668699	0.311506	-0.456479	-0.620935	0.191680	-0.346746	-0.573171	2.396139	-2.532256	-4.250404	0.000000	0.000000	26.871586	3.221837	-5.528236	11.514677	-8.557486	52.657765	47.622952	49.284350	6.986304	18.476827	6.528721	-11.379402	42.343964	57.151772	65.402607	5.808426	14.885936
1.316667	-5.660764	-1.723397	95.207780	0.240127	0.709947	0.758279	5.619813	-2.931201	-14.661288	4.461085	0.077861	25.803117	6.396717	0.000000	8.199177	3.000874	2.535583	5.230952	0.091297	24.982842	4.818728	0.000000	0.333876	-0.240977	-0.727991	0.620041	-0.320499	-0.773490	0.548525	-0.585910	-0.773490	0.381587	-0.585910	-0.636992	0.310037	-0.491399	-0.591493	0.190777	-0.373273	-0.545993	2.384843	-2.725974	-4.048867	0.000000	0.000000	26.870306	3.270479	-5.601466	11.472469	-8.483425	52.602667	47.598194	48.816679	7.040168	18.529643	6.496582	-11.455890	42.211006	57.306686	65.503438	6.036606	15.426569
1.333333	-5.834207	-1.713682	94.953306	0.240464	0.709888	0.758091	5.591867	-3.089600	-14.326758	4.465797	0.077943	25.718087	6.212529	0.000000	8.105718	3.168721	2.343229	5.031798	0.087821	25.190944	5.028825	0.000000	0.333265	-0.261417	-0.682107	0.618906	-0.347685	-0.724739	0.547520	-0.635609	-0.724739	0.380888	-0.635609	-0.596844	0.309469	-0.533082	-0.554212	0.190427	-0.404935	-0.511580	2.380475	-2.957202	-3.793675	0.000000	0.000000	26.883846	3.321660	-5.661938	11.411746	-8.409402	52.534246	47.685279	47.502964	6.951806	18.889470	6.444609	-11.542301	42.055618	57.466927	65.615520	6.335964	15.899168
1.350000	-6.050036	-1.713555	94.625012	0.240898	0.709819	0.757975	5.598494	-3.289177	-13.904047	4.486960	0.078312	25.662862	6.063626	0.000000	8.019766	3.374305	2.131797	4.821012	0.084143	25.370821	5.156023	0.000000	0.332607	-0.286559	-0.625743	0.617685	-0.381123	-0.664852	0.546441	-0.696739	-0.664852	0.380137	-0.696739	-0.547525	0.308859	-0.584350	-0.508416	0.190052	-0.443879	-0.469307	2.375782	-3.241609	-3.480196	0.000000	0.000000	26.909474	3.385129	-5.703691	11.376709	-8.322548	52.500349	47.804706	46.287222	7.015529	19.223599	6.397948	-11.658561	41.989834	57.637138	65.336964	6.561427	16.197403
1.366667	-6.290281	-1.730288	94.249378	0.241374	0.709716	0.757957	5.645069	-3.513491	-13.399468	4.521816	0.078921	25.633210	5.911739	0.000000	7.958026	3.597922	1.890953	4.614795	0.080543	25.545796	5.287543	0.000000	0.333306	-0.314615	-0.559458	0.618982	-0.418438	-0.594424	0.547588	-0.764955	-0.594424	0.380935	-0.764955	-0.489526	0.309508	-0.641563	-0.454560	0.190451	-0.487339	-0.419594	2.380770	-3.558988	-3.111538	0.000000	0.000000	26.948287	3.456463	-5.780075	11.329477	-8.197031	52.326586	47.931413	44.869656	7.296768	19.908658	6.383934	-11.761640	42.006254	57.758708	64.515198	6.795417	16.425723
1.383333	-6.564578	-1.761593	93.805785	0.241908	0.709578	0.758090	5.752580	-3.779844	-12.957924	4.604062	0.080356	25.682207	5.973568	0.000000	7.917038	3.854226	1.694786	4.408954	0.076951	25.659756	5.230922	0.000000	0.334365	-0.346791	-0.485735	0.620948	-0.461232	-0.516093	0.549327	-0.843187	-0.516093	0.382145	-0.843187	-0.425018	0.310491	-0.707176	-0.394659	0.191056	-0.537179	-0.364301	2.388332	-3.922968	-2.701511	0.000000	0.000000	26.994658	3.537768	-5.903806	11.383076	-8.026390	52.365410	47.928734	43.840247	7.733779	20.406688	6.384373	-11.847037	42.025939	57.826443	63.526755	6.961598	16.418501
1.400000	-6.852226	-1.813645	93.324759	0.242450	0.709387	0.758395	5.927954	-4.065409	-12.494480	4.731057	0.082573	25.788241	6.089896	0.000000	7.923797	4.117529	1.451833	4.239750	0.073998	25.747360	5.164510	0.000000	0.336455	-0.380027	-0.404718	0.624831	-0.505436	-0.430013	0.552763	-0.923998	-0.430013	0.384535	-0.923998	-0.354128	0.312432	-0.774951	-0.328834	0.192251	-0.588662	-0.303539	2.403267	-4.298942	-2.250921	0.000000	0.000000	27.047093	3.606586	-6.042192	11.516908	-7.802860	52.553698	47.720491	43.173715	8.215019	20.658902	6.446043	-11.897861	42.106889	57.800064	62.289831	6.998984	16.175416
1.416667	-7.133230	-1.892992	92.819095	0.242946	0.709128	0.758874	6.181150	-4.356630	-12.110822	4.908544	0.085670	25.964650	6.367645	0.000000	7.981075	4.373801	1.219896	4.097903	0.071522	25.796438	5.014138	0.000000	0.340343	-0.410729	-0.315149	0.632051	-0.546269	-0.334846	0.559149	-0.998646	-0.334846	0.388978	-0.998646	-0.275755	0.316042	-0.837558	-0.256058	0.194472	-0.636219	-0.236362	2.431034	-4.646247	-1.752763	0.000000	0.000000	27.107876	3.641967	-6.148093	11.718903	-7.532891	52.843686	47.246470	42.866316	8.557764	20.565706	6.612967	-11.911658	42.344549	57.645245	60.788298	6.796427	15.635770
